<?xml version="1.0" encoding="utf-8" standalone="no"?>
<!DOCTYPE svg PUBLIC "-//W3C//DTD SVG 1.1//EN"
  "http://www.w3.org/Graphics/SVG/1.1/DTD/svg11.dtd">
<!-- Created with matplotlib (http://matplotlib.org/) -->
<svg height="432pt" version="1.1" viewBox="0 0 576 432" width="576pt" xmlns="http://www.w3.org/2000/svg" xmlns:xlink="http://www.w3.org/1999/xlink">
 <defs>
  <style type="text/css">
*{stroke-linecap:butt;stroke-linejoin:round;}
  </style>
 </defs>
 <g id="figure_1">
  <g id="patch_1">
   <path d="
M0 432
L576 432
L576 0
L0 0
z
" style="fill:#ffffff;"/>
  </g>
  <g id="axes_1">
   <g id="patch_2">
    <path d="
M72 388.8
L518.4 388.8
L518.4 43.2
L72 43.2
z
" style="fill:#ffffff;"/>
   </g>
   <g id="LineCollection_1">
    <defs>
     <path d="
M-4000.26 2326.28
L-4000.26 1011.11" id="C0_0_2167f23545"/>
     <path d="
M-2870.6 757.329
L-2870.6 155.447" id="C0_1_00e0026d2b"/>
     <path d="
M-1740.93 106.994
L-1740.93 48.8406" id="C0_2_e2cc5c91ed"/>
     <path d="
M-611.265 -39.3454
L-611.265 -107.1" id="C0_3_a5386d29dc"/>
     <path d="
M178.337 -155.789
L178.337 -214.172" id="C0_4_0108b51627"/>
     <path d="
M377.261 -210.252
L377.261 -244.868" id="C0_5_32c23043a0"/>
     <path d="
M518.4 -232.045
L518.4 -277.303" id="C0_6_3fc8a7f221"/>
    </defs>
    <g clip-path="url(#p7ff5b81e1d)">
     <use style="fill:none;stroke:#0000ff;" x="0.0" xlink:href="#C0_0_2167f23545" y="432.0"/>
    </g>
    <g clip-path="url(#p7ff5b81e1d)">
     <use style="fill:none;stroke:#0000ff;" x="0.0" xlink:href="#C0_1_00e0026d2b" y="432.0"/>
    </g>
    <g clip-path="url(#p7ff5b81e1d)">
     <use style="fill:none;stroke:#0000ff;" x="0.0" xlink:href="#C0_2_e2cc5c91ed" y="432.0"/>
    </g>
    <g clip-path="url(#p7ff5b81e1d)">
     <use style="fill:none;stroke:#0000ff;" x="0.0" xlink:href="#C0_3_a5386d29dc" y="432.0"/>
    </g>
    <g clip-path="url(#p7ff5b81e1d)">
     <use style="fill:none;stroke:#0000ff;" x="0.0" xlink:href="#C0_4_0108b51627" y="432.0"/>
    </g>
    <g clip-path="url(#p7ff5b81e1d)">
     <use style="fill:none;stroke:#0000ff;" x="0.0" xlink:href="#C0_5_32c23043a0" y="432.0"/>
    </g>
    <g clip-path="url(#p7ff5b81e1d)">
     <use style="fill:none;stroke:#0000ff;" x="0.0" xlink:href="#C0_6_3fc8a7f221" y="432.0"/>
    </g>
   </g>
   <g id="LineCollection_2">
    <defs>
     <path d="
M-4000.26 2221.91
L-4000.26 1444.39" id="C1_0_13dc10a366"/>
     <path d="
M-2870.6 668.447
L-2870.6 380.619" id="C1_1_e17d4b711e"/>
     <path d="
M-1740.93 157.045
L-1740.93 98.7944" id="C1_2_8aee727556"/>
     <path d="
M-611.265 -18.1426
L-611.265 -50.9813" id="C1_3_818e15eebe"/>
     <path d="
M178.337 -140.541
L178.337 -198.078" id="C1_4_df86a6198a"/>
     <path d="
M377.261 -189.454
L377.261 -233.912" id="C1_5_4bc633d776"/>
     <path d="
M518.4 -221.276
L518.4 -267.041" id="C1_6_fe415d940c"/>
    </defs>
    <g clip-path="url(#p7ff5b81e1d)">
     <use style="fill:none;stroke:#008000;" x="0.0" xlink:href="#C1_0_13dc10a366" y="432.0"/>
    </g>
    <g clip-path="url(#p7ff5b81e1d)">
     <use style="fill:none;stroke:#008000;" x="0.0" xlink:href="#C1_1_e17d4b711e" y="432.0"/>
    </g>
    <g clip-path="url(#p7ff5b81e1d)">
     <use style="fill:none;stroke:#008000;" x="0.0" xlink:href="#C1_2_8aee727556" y="432.0"/>
    </g>
    <g clip-path="url(#p7ff5b81e1d)">
     <use style="fill:none;stroke:#008000;" x="0.0" xlink:href="#C1_3_818e15eebe" y="432.0"/>
    </g>
    <g clip-path="url(#p7ff5b81e1d)">
     <use style="fill:none;stroke:#008000;" x="0.0" xlink:href="#C1_4_df86a6198a" y="432.0"/>
    </g>
    <g clip-path="url(#p7ff5b81e1d)">
     <use style="fill:none;stroke:#008000;" x="0.0" xlink:href="#C1_5_4bc633d776" y="432.0"/>
    </g>
    <g clip-path="url(#p7ff5b81e1d)">
     <use style="fill:none;stroke:#008000;" x="0.0" xlink:href="#C1_6_fe415d940c" y="432.0"/>
    </g>
   </g>
   <g id="LineCollection_3">
    <defs>
     <path d="
M-4000.26 2362.83
L-4000.26 1059.75" id="C2_0_cb0b1cb9f8"/>
     <path d="
M-2870.6 842.834
L-2870.6 290.975" id="C2_1_8fe4a4af4a"/>
     <path d="
M-1740.93 132.222
L-1740.93 72.0683" id="C2_2_60256d7004"/>
     <path d="
M-611.265 -33.6236
L-611.265 -88.0798" id="C2_3_14ac4908b3"/>
     <path d="
M178.337 -180.678
L178.337 -214.646" id="C2_4_0e5f4065f4"/>
     <path d="
M377.261 -210.124
L377.261 -262.316" id="C2_5_bacb563ce5"/>
     <path d="
M518.4 -239.63
L518.4 -275.492" id="C2_6_b0c54beaf6"/>
    </defs>
    <g clip-path="url(#p7ff5b81e1d)">
     <use style="fill:none;stroke:#ff0000;" x="0.0" xlink:href="#C2_0_cb0b1cb9f8" y="432.0"/>
    </g>
    <g clip-path="url(#p7ff5b81e1d)">
     <use style="fill:none;stroke:#ff0000;" x="0.0" xlink:href="#C2_1_8fe4a4af4a" y="432.0"/>
    </g>
    <g clip-path="url(#p7ff5b81e1d)">
     <use style="fill:none;stroke:#ff0000;" x="0.0" xlink:href="#C2_2_60256d7004" y="432.0"/>
    </g>
    <g clip-path="url(#p7ff5b81e1d)">
     <use style="fill:none;stroke:#ff0000;" x="0.0" xlink:href="#C2_3_14ac4908b3" y="432.0"/>
    </g>
    <g clip-path="url(#p7ff5b81e1d)">
     <use style="fill:none;stroke:#ff0000;" x="0.0" xlink:href="#C2_4_0e5f4065f4" y="432.0"/>
    </g>
    <g clip-path="url(#p7ff5b81e1d)">
     <use style="fill:none;stroke:#ff0000;" x="0.0" xlink:href="#C2_5_bacb563ce5" y="432.0"/>
    </g>
    <g clip-path="url(#p7ff5b81e1d)">
     <use style="fill:none;stroke:#ff0000;" x="0.0" xlink:href="#C2_6_b0c54beaf6" y="432.0"/>
    </g>
   </g>
   <g id="line2d_1">
    <defs>
     <path d="
M3 1.83697e-16
L-3 -1.83697e-16" id="mdde457ef1d" style="stroke:#0000ff;stroke-width:0.5;"/>
    </defs>
    <g clip-path="url(#p7ff5b81e1d)">
     <use style="fill:#0000ff;stroke:#0000ff;stroke-width:0.5;" x="-4000.26122449" xlink:href="#mdde457ef1d" y="2758.28128175"/>
     <use style="fill:#0000ff;stroke:#0000ff;stroke-width:0.5;" x="-2870.59591837" xlink:href="#mdde457ef1d" y="1189.32923348"/>
     <use style="fill:#0000ff;stroke:#0000ff;stroke-width:0.5;" x="-1740.93061224" xlink:href="#mdde457ef1d" y="538.993891873"/>
     <use style="fill:#0000ff;stroke:#0000ff;stroke-width:0.5;" x="-611.265306122" xlink:href="#mdde457ef1d" y="392.654600502"/>
     <use style="fill:#0000ff;stroke:#0000ff;stroke-width:0.5;" x="178.336857796" xlink:href="#mdde457ef1d" y="276.210631356"/>
     <use style="fill:#0000ff;stroke:#0000ff;stroke-width:0.5;" x="377.261043863" xlink:href="#mdde457ef1d" y="221.748133032"/>
     <use style="fill:#0000ff;stroke:#0000ff;stroke-width:0.5;" x="518.4" xlink:href="#mdde457ef1d" y="199.954636768"/>
    </g>
   </g>
   <g id="line2d_2">
    <g clip-path="url(#p7ff5b81e1d)">
     <use style="fill:#0000ff;stroke:#0000ff;stroke-width:0.5;" x="-4000.26122449" xlink:href="#mdde457ef1d" y="1443.11365892"/>
     <use style="fill:#0000ff;stroke:#0000ff;stroke-width:0.5;" x="-2870.59591837" xlink:href="#mdde457ef1d" y="587.447216184"/>
     <use style="fill:#0000ff;stroke:#0000ff;stroke-width:0.5;" x="-1740.93061224" xlink:href="#mdde457ef1d" y="480.840621214"/>
     <use style="fill:#0000ff;stroke:#0000ff;stroke-width:0.5;" x="-611.265306122" xlink:href="#mdde457ef1d" y="324.899644804"/>
     <use style="fill:#0000ff;stroke:#0000ff;stroke-width:0.5;" x="178.336857796" xlink:href="#mdde457ef1d" y="217.827777163"/>
     <use style="fill:#0000ff;stroke:#0000ff;stroke-width:0.5;" x="377.261043863" xlink:href="#mdde457ef1d" y="187.13214304"/>
     <use style="fill:#0000ff;stroke:#0000ff;stroke-width:0.5;" x="518.4" xlink:href="#mdde457ef1d" y="154.697195083"/>
    </g>
   </g>
   <g id="line2d_3">
    <path clip-path="url(#p7ff5b81e1d)" d="
M-4000.26 2100.7
M-1 272.402
L178.337 247.019
L377.261 204.44
L518.4 177.326" style="fill:none;stroke:#0000ff;stroke-linecap:square;"/>
   </g>
   <g id="line2d_4">
    <defs>
     <path d="
M3 1.83697e-16
L-3 -1.83697e-16" id="m1ef3793437" style="stroke:#008000;stroke-width:0.5;"/>
    </defs>
    <g clip-path="url(#p7ff5b81e1d)">
     <use style="fill:#008000;stroke:#008000;stroke-width:0.5;" x="-4000.26122449" xlink:href="#m1ef3793437" y="2653.90923519"/>
     <use style="fill:#008000;stroke:#008000;stroke-width:0.5;" x="-2870.59591837" xlink:href="#m1ef3793437" y="1100.44708153"/>
     <use style="fill:#008000;stroke:#008000;stroke-width:0.5;" x="-1740.93061224" xlink:href="#m1ef3793437" y="589.045100084"/>
     <use style="fill:#008000;stroke:#008000;stroke-width:0.5;" x="-611.265306122" xlink:href="#m1ef3793437" y="413.857405095"/>
     <use style="fill:#008000;stroke:#008000;stroke-width:0.5;" x="178.336857796" xlink:href="#m1ef3793437" y="291.458778604"/>
     <use style="fill:#008000;stroke:#008000;stroke-width:0.5;" x="377.261043863" xlink:href="#m1ef3793437" y="242.545895563"/>
     <use style="fill:#008000;stroke:#008000;stroke-width:0.5;" x="518.4" xlink:href="#m1ef3793437" y="210.723938064"/>
    </g>
   </g>
   <g id="line2d_5">
    <g clip-path="url(#p7ff5b81e1d)">
     <use style="fill:#008000;stroke:#008000;stroke-width:0.5;" x="-4000.26122449" xlink:href="#m1ef3793437" y="1876.38624727"/>
     <use style="fill:#008000;stroke:#008000;stroke-width:0.5;" x="-2870.59591837" xlink:href="#m1ef3793437" y="812.619363083"/>
     <use style="fill:#008000;stroke:#008000;stroke-width:0.5;" x="-1740.93061224" xlink:href="#m1ef3793437" y="530.794368814"/>
     <use style="fill:#008000;stroke:#008000;stroke-width:0.5;" x="-611.265306122" xlink:href="#m1ef3793437" y="381.018691222"/>
     <use style="fill:#008000;stroke:#008000;stroke-width:0.5;" x="178.336857796" xlink:href="#m1ef3793437" y="233.922287"/>
     <use style="fill:#008000;stroke:#008000;stroke-width:0.5;" x="377.261043863" xlink:href="#m1ef3793437" y="198.088204514"/>
     <use style="fill:#008000;stroke:#008000;stroke-width:0.5;" x="518.4" xlink:href="#m1ef3793437" y="164.958546527"/>
    </g>
   </g>
   <g id="line2d_6">
    <path clip-path="url(#p7ff5b81e1d)" d="
M-4000.26 2265.15
M-1 293.295
L178.337 262.691
L377.261 220.317
L518.4 187.841" style="fill:none;stroke:#008000;stroke-linecap:square;"/>
   </g>
   <g id="line2d_7">
    <defs>
     <path d="
M3 1.83697e-16
L-3 -1.83697e-16" id="m12d35e2592" style="stroke:#ff0000;stroke-width:0.5;"/>
    </defs>
    <g clip-path="url(#p7ff5b81e1d)">
     <use style="fill:#ff0000;stroke:#ff0000;stroke-width:0.5;" x="-4000.26122449" xlink:href="#m12d35e2592" y="2794.8262616"/>
     <use style="fill:#ff0000;stroke:#ff0000;stroke-width:0.5;" x="-2870.59591837" xlink:href="#m12d35e2592" y="1274.83352954"/>
     <use style="fill:#ff0000;stroke:#ff0000;stroke-width:0.5;" x="-1740.93061224" xlink:href="#m12d35e2592" y="564.222166068"/>
     <use style="fill:#ff0000;stroke:#ff0000;stroke-width:0.5;" x="-611.265306122" xlink:href="#m12d35e2592" y="398.37637795"/>
     <use style="fill:#ff0000;stroke:#ff0000;stroke-width:0.5;" x="178.336857796" xlink:href="#m12d35e2592" y="251.322367547"/>
     <use style="fill:#ff0000;stroke:#ff0000;stroke-width:0.5;" x="377.261043863" xlink:href="#m12d35e2592" y="221.876208682"/>
     <use style="fill:#ff0000;stroke:#ff0000;stroke-width:0.5;" x="518.4" xlink:href="#m12d35e2592" y="192.370073471"/>
    </g>
   </g>
   <g id="line2d_8">
    <g clip-path="url(#p7ff5b81e1d)">
     <use style="fill:#ff0000;stroke:#ff0000;stroke-width:0.5;" x="-4000.26122449" xlink:href="#m12d35e2592" y="1491.74717344"/>
     <use style="fill:#ff0000;stroke:#ff0000;stroke-width:0.5;" x="-2870.59591837" xlink:href="#m12d35e2592" y="722.974961304"/>
     <use style="fill:#ff0000;stroke:#ff0000;stroke-width:0.5;" x="-1740.93061224" xlink:href="#m12d35e2592" y="504.068326999"/>
     <use style="fill:#ff0000;stroke:#ff0000;stroke-width:0.5;" x="-611.265306122" xlink:href="#m12d35e2592" y="343.920158364"/>
     <use style="fill:#ff0000;stroke:#ff0000;stroke-width:0.5;" x="178.336857796" xlink:href="#m12d35e2592" y="217.354206577"/>
     <use style="fill:#ff0000;stroke:#ff0000;stroke-width:0.5;" x="377.261043863" xlink:href="#m12d35e2592" y="169.683881659"/>
     <use style="fill:#ff0000;stroke:#ff0000;stroke-width:0.5;" x="518.4" xlink:href="#m12d35e2592" y="156.5080508"/>
    </g>
   </g>
   <g id="line2d_9">
    <path clip-path="url(#p7ff5b81e1d)" d="
M-4000.26 2143.29
M-1 265.411
L178.337 234.338
L377.261 195.78
L518.4 174.439" style="fill:none;stroke:#ff0000;stroke-linecap:square;"/>
   </g>
   <g id="matplotlib.axis_1">
    <g id="xtick_1">
     <g id="line2d_10">
      <path clip-path="url(#p7ff5b81e1d)" d="
M518.4 388.8
L518.4 43.2" style="fill:none;stroke:#000000;stroke-dasharray:1.000000,3.000000;stroke-dashoffset:0.0;stroke-width:0.5;"/>
     </g>
     <g id="line2d_11">
      <defs>
       <path d="
M0 0
L0 -4" id="m93b0483c22" style="stroke:#000000;stroke-width:0.5;"/>
      </defs>
      <g>
       <use style="stroke:#000000;stroke-width:0.5;" x="518.4" xlink:href="#m93b0483c22" y="388.8"/>
      </g>
     </g>
     <g id="line2d_12">
      <defs>
       <path d="
M0 0
L0 4" id="m741efc42ff" style="stroke:#000000;stroke-width:0.5;"/>
      </defs>
      <g>
       <use style="stroke:#000000;stroke-width:0.5;" x="518.4" xlink:href="#m741efc42ff" y="43.2"/>
      </g>
     </g>
     <g id="text_1">
      <!-- $\mathdefault{10^{5}}$ -->
      <defs>
       <path d="
M31.7812 66.4062
Q24.1719 66.4062 20.3281 58.9062
Q16.5 51.4219 16.5 36.375
Q16.5 21.3906 20.3281 13.8906
Q24.1719 6.39062 31.7812 6.39062
Q39.4531 6.39062 43.2812 13.8906
Q47.125 21.3906 47.125 36.375
Q47.125 51.4219 43.2812 58.9062
Q39.4531 66.4062 31.7812 66.4062
M31.7812 74.2188
Q44.0469 74.2188 50.5156 64.5156
Q56.9844 54.8281 56.9844 36.375
Q56.9844 17.9688 50.5156 8.26562
Q44.0469 -1.42188 31.7812 -1.42188
Q19.5312 -1.42188 13.0625 8.26562
Q6.59375 17.9688 6.59375 36.375
Q6.59375 54.8281 13.0625 64.5156
Q19.5312 74.2188 31.7812 74.2188" id="BitstreamVeraSans-Roman-30"/>
       <path d="
M12.4062 8.29688
L28.5156 8.29688
L28.5156 63.9219
L10.9844 60.4062
L10.9844 69.3906
L28.4219 72.9062
L38.2812 72.9062
L38.2812 8.29688
L54.3906 8.29688
L54.3906 0
L12.4062 0
z
" id="BitstreamVeraSans-Roman-31"/>
       <path d="
M10.7969 72.9062
L49.5156 72.9062
L49.5156 64.5938
L19.8281 64.5938
L19.8281 46.7344
Q21.9688 47.4688 24.1094 47.8281
Q26.2656 48.1875 28.4219 48.1875
Q40.625 48.1875 47.75 41.5
Q54.8906 34.8125 54.8906 23.3906
Q54.8906 11.625 47.5625 5.09375
Q40.2344 -1.42188 26.9062 -1.42188
Q22.3125 -1.42188 17.5469 -0.640625
Q12.7969 0.140625 7.71875 1.70312
L7.71875 11.625
Q12.1094 9.23438 16.7969 8.0625
Q21.4844 6.89062 26.7031 6.89062
Q35.1562 6.89062 40.0781 11.3281
Q45.0156 15.7656 45.0156 23.3906
Q45.0156 31 40.0781 35.4375
Q35.1562 39.8906 26.7031 39.8906
Q22.75 39.8906 18.8125 39.0156
Q14.8906 38.1406 10.7969 36.2812
z
" id="BitstreamVeraSans-Roman-35"/>
      </defs>
      <g transform="translate(506.82 403.024375)scale(0.12 -0.12)">
       <use transform="translate(0.0 0.465625)" xlink:href="#BitstreamVeraSans-Roman-31"/>
       <use transform="translate(63.623046875 0.465625)" xlink:href="#BitstreamVeraSans-Roman-30"/>
       <use transform="translate(127.24609375 52.965625)scale(0.7)" xlink:href="#BitstreamVeraSans-Roman-35"/>
      </g>
     </g>
    </g>
    <g id="xtick_2">
     <g id="line2d_13">
      <defs>
       <path d="
M0 0
L0 -2" id="m177f7580d0" style="stroke:#000000;stroke-width:0.5;"/>
      </defs>
      <g>
       <use style="stroke:#000000;stroke-width:0.5;" x="178.336857796" xlink:href="#m177f7580d0" y="388.8"/>
      </g>
     </g>
     <g id="line2d_14">
      <defs>
       <path d="
M0 0
L0 2" id="m5284c7e2a0" style="stroke:#000000;stroke-width:0.5;"/>
      </defs>
      <g>
       <use style="stroke:#000000;stroke-width:0.5;" x="178.336857796" xlink:href="#m5284c7e2a0" y="43.2"/>
      </g>
     </g>
    </g>
    <g id="xtick_3">
     <g id="line2d_15">
      <g>
       <use style="stroke:#000000;stroke-width:0.5;" x="267.785164352" xlink:href="#m177f7580d0" y="388.8"/>
      </g>
     </g>
     <g id="line2d_16">
      <g>
       <use style="stroke:#000000;stroke-width:0.5;" x="267.785164352" xlink:href="#m5284c7e2a0" y="43.2"/>
      </g>
     </g>
    </g>
    <g id="xtick_4">
     <g id="line2d_17">
      <g>
       <use style="stroke:#000000;stroke-width:0.5;" x="343.412629954" xlink:href="#m177f7580d0" y="388.8"/>
      </g>
     </g>
     <g id="line2d_18">
      <g>
       <use style="stroke:#000000;stroke-width:0.5;" x="343.412629954" xlink:href="#m5284c7e2a0" y="43.2"/>
      </g>
     </g>
    </g>
    <g id="xtick_5">
     <g id="line2d_19">
      <g>
       <use style="stroke:#000000;stroke-width:0.5;" x="408.924120489" xlink:href="#m177f7580d0" y="388.8"/>
      </g>
     </g>
     <g id="line2d_20">
      <g>
       <use style="stroke:#000000;stroke-width:0.5;" x="408.924120489" xlink:href="#m5284c7e2a0" y="43.2"/>
      </g>
     </g>
    </g>
    <g id="xtick_6">
     <g id="line2d_21">
      <g>
       <use style="stroke:#000000;stroke-width:0.5;" x="466.709350418" xlink:href="#m177f7580d0" y="388.8"/>
      </g>
     </g>
     <g id="line2d_22">
      <g>
       <use style="stroke:#000000;stroke-width:0.5;" x="466.709350418" xlink:href="#m5284c7e2a0" y="43.2"/>
      </g>
     </g>
    </g>
    <g id="text_2">
     <!-- number of training examples -->
     <defs>
      <path id="BitstreamVeraSans-Roman-20"/>
      <path d="
M37.1094 75.9844
L37.1094 68.5
L28.5156 68.5
Q23.6875 68.5 21.7969 66.5469
Q19.9219 64.5938 19.9219 59.5156
L19.9219 54.6875
L34.7188 54.6875
L34.7188 47.7031
L19.9219 47.7031
L19.9219 0
L10.8906 0
L10.8906 47.7031
L2.29688 47.7031
L2.29688 54.6875
L10.8906 54.6875
L10.8906 58.5
Q10.8906 67.625 15.1406 71.7969
Q19.3906 75.9844 28.6094 75.9844
z
" id="BitstreamVeraSans-Roman-66"/>
      <path d="
M54.8906 33.0156
L54.8906 0
L45.9062 0
L45.9062 32.7188
Q45.9062 40.4844 42.875 44.3281
Q39.8438 48.1875 33.7969 48.1875
Q26.5156 48.1875 22.3125 43.5469
Q18.1094 38.9219 18.1094 30.9062
L18.1094 0
L9.07812 0
L9.07812 54.6875
L18.1094 54.6875
L18.1094 46.1875
Q21.3438 51.125 25.7031 53.5625
Q30.0781 56 35.7969 56
Q45.2188 56 50.0469 50.1719
Q54.8906 44.3438 54.8906 33.0156" id="BitstreamVeraSans-Roman-6e"/>
      <path d="
M52 44.1875
Q55.375 50.25 60.0625 53.125
Q64.75 56 71.0938 56
Q79.6406 56 84.2812 50.0156
Q88.9219 44.0469 88.9219 33.0156
L88.9219 0
L79.8906 0
L79.8906 32.7188
Q79.8906 40.5781 77.0938 44.375
Q74.3125 48.1875 68.6094 48.1875
Q61.625 48.1875 57.5625 43.5469
Q53.5156 38.9219 53.5156 30.9062
L53.5156 0
L44.4844 0
L44.4844 32.7188
Q44.4844 40.625 41.7031 44.4062
Q38.9219 48.1875 33.1094 48.1875
Q26.2188 48.1875 22.1562 43.5312
Q18.1094 38.875 18.1094 30.9062
L18.1094 0
L9.07812 0
L9.07812 54.6875
L18.1094 54.6875
L18.1094 46.1875
Q21.1875 51.2188 25.4844 53.6094
Q29.7812 56 35.6875 56
Q41.6562 56 45.8281 52.9688
Q50 49.9531 52 44.1875" id="BitstreamVeraSans-Roman-6d"/>
      <path d="
M30.6094 48.3906
Q23.3906 48.3906 19.1875 42.75
Q14.9844 37.1094 14.9844 27.2969
Q14.9844 17.4844 19.1562 11.8438
Q23.3438 6.20312 30.6094 6.20312
Q37.7969 6.20312 41.9844 11.8594
Q46.1875 17.5312 46.1875 27.2969
Q46.1875 37.0156 41.9844 42.7031
Q37.7969 48.3906 30.6094 48.3906
M30.6094 56
Q42.3281 56 49.0156 48.375
Q55.7188 40.7656 55.7188 27.2969
Q55.7188 13.875 49.0156 6.21875
Q42.3281 -1.42188 30.6094 -1.42188
Q18.8438 -1.42188 12.1719 6.21875
Q5.51562 13.875 5.51562 27.2969
Q5.51562 40.7656 12.1719 48.375
Q18.8438 56 30.6094 56" id="BitstreamVeraSans-Roman-6f"/>
      <path d="
M9.42188 75.9844
L18.4062 75.9844
L18.4062 0
L9.42188 0
z
" id="BitstreamVeraSans-Roman-6c"/>
      <path d="
M44.2812 53.0781
L44.2812 44.5781
Q40.4844 46.5312 36.375 47.5
Q32.2812 48.4844 27.875 48.4844
Q21.1875 48.4844 17.8438 46.4375
Q14.5 44.3906 14.5 40.2812
Q14.5 37.1562 16.8906 35.375
Q19.2812 33.5938 26.5156 31.9844
L29.5938 31.2969
Q39.1562 29.25 43.1875 25.5156
Q47.2188 21.7812 47.2188 15.0938
Q47.2188 7.46875 41.1875 3.01562
Q35.1562 -1.42188 24.6094 -1.42188
Q20.2188 -1.42188 15.4531 -0.5625
Q10.6875 0.296875 5.42188 2
L5.42188 11.2812
Q10.4062 8.6875 15.2344 7.39062
Q20.0625 6.10938 24.8125 6.10938
Q31.1562 6.10938 34.5625 8.28125
Q37.9844 10.4531 37.9844 14.4062
Q37.9844 18.0625 35.5156 20.0156
Q33.0625 21.9688 24.7031 23.7812
L21.5781 24.5156
Q13.2344 26.2656 9.51562 29.9062
Q5.8125 33.5469 5.8125 39.8906
Q5.8125 47.6094 11.2812 51.7969
Q16.75 56 26.8125 56
Q31.7812 56 36.1719 55.2656
Q40.5781 54.5469 44.2812 53.0781" id="BitstreamVeraSans-Roman-73"/>
      <path d="
M34.2812 27.4844
Q23.3906 27.4844 19.1875 25
Q14.9844 22.5156 14.9844 16.5
Q14.9844 11.7188 18.1406 8.90625
Q21.2969 6.10938 26.7031 6.10938
Q34.1875 6.10938 38.7031 11.4062
Q43.2188 16.7031 43.2188 25.4844
L43.2188 27.4844
z

M52.2031 31.2031
L52.2031 0
L43.2188 0
L43.2188 8.29688
Q40.1406 3.32812 35.5469 0.953125
Q30.9531 -1.42188 24.3125 -1.42188
Q15.9219 -1.42188 10.9531 3.29688
Q6 8.01562 6 15.9219
Q6 25.1406 12.1719 29.8281
Q18.3594 34.5156 30.6094 34.5156
L43.2188 34.5156
L43.2188 35.4062
Q43.2188 41.6094 39.1406 45
Q35.0625 48.3906 27.6875 48.3906
Q23 48.3906 18.5469 47.2656
Q14.1094 46.1406 10.0156 43.8906
L10.0156 52.2031
Q14.9375 54.1094 19.5781 55.0469
Q24.2188 56 28.6094 56
Q40.4844 56 46.3438 49.8438
Q52.2031 43.7031 52.2031 31.2031" id="BitstreamVeraSans-Roman-61"/>
      <path d="
M9.42188 54.6875
L18.4062 54.6875
L18.4062 0
L9.42188 0
z

M9.42188 75.9844
L18.4062 75.9844
L18.4062 64.5938
L9.42188 64.5938
z
" id="BitstreamVeraSans-Roman-69"/>
      <path d="
M54.8906 54.6875
L35.1094 28.0781
L55.9062 0
L45.3125 0
L29.3906 21.4844
L13.4844 0
L2.875 0
L24.125 28.6094
L4.6875 54.6875
L15.2812 54.6875
L29.7812 35.2031
L44.2812 54.6875
z
" id="BitstreamVeraSans-Roman-78"/>
      <path d="
M56.2031 29.5938
L56.2031 25.2031
L14.8906 25.2031
Q15.4844 15.9219 20.4844 11.0625
Q25.4844 6.20312 34.4219 6.20312
Q39.5938 6.20312 44.4531 7.46875
Q49.3125 8.73438 54.1094 11.2812
L54.1094 2.78125
Q49.2656 0.734375 44.1875 -0.34375
Q39.1094 -1.42188 33.8906 -1.42188
Q20.7969 -1.42188 13.1562 6.1875
Q5.51562 13.8125 5.51562 26.8125
Q5.51562 40.2344 12.7656 48.1094
Q20.0156 56 32.3281 56
Q43.3594 56 49.7812 48.8906
Q56.2031 41.7969 56.2031 29.5938
M47.2188 32.2344
Q47.125 39.5938 43.0938 43.9844
Q39.0625 48.3906 32.4219 48.3906
Q24.9062 48.3906 20.3906 44.1406
Q15.875 39.8906 15.1875 32.1719
z
" id="BitstreamVeraSans-Roman-65"/>
      <path d="
M18.3125 70.2188
L18.3125 54.6875
L36.8125 54.6875
L36.8125 47.7031
L18.3125 47.7031
L18.3125 18.0156
Q18.3125 11.3281 20.1406 9.42188
Q21.9688 7.51562 27.5938 7.51562
L36.8125 7.51562
L36.8125 0
L27.5938 0
Q17.1875 0 13.2344 3.875
Q9.28125 7.76562 9.28125 18.0156
L9.28125 47.7031
L2.6875 47.7031
L2.6875 54.6875
L9.28125 54.6875
L9.28125 70.2188
z
" id="BitstreamVeraSans-Roman-74"/>
      <path d="
M8.5 21.5781
L8.5 54.6875
L17.4844 54.6875
L17.4844 21.9219
Q17.4844 14.1562 20.5 10.2656
Q23.5312 6.39062 29.5938 6.39062
Q36.8594 6.39062 41.0781 11.0312
Q45.3125 15.6719 45.3125 23.6875
L45.3125 54.6875
L54.2969 54.6875
L54.2969 0
L45.3125 0
L45.3125 8.40625
Q42.0469 3.42188 37.7188 1
Q33.4062 -1.42188 27.6875 -1.42188
Q18.2656 -1.42188 13.375 4.4375
Q8.5 10.2969 8.5 21.5781" id="BitstreamVeraSans-Roman-75"/>
      <path d="
M41.1094 46.2969
Q39.5938 47.1719 37.8125 47.5781
Q36.0312 48 33.8906 48
Q26.2656 48 22.1875 43.0469
Q18.1094 38.0938 18.1094 28.8125
L18.1094 0
L9.07812 0
L9.07812 54.6875
L18.1094 54.6875
L18.1094 46.1875
Q20.9531 51.1719 25.4844 53.5781
Q30.0312 56 36.5312 56
Q37.4531 56 38.5781 55.875
Q39.7031 55.7656 41.0625 55.5156
z
" id="BitstreamVeraSans-Roman-72"/>
      <path d="
M45.4062 27.9844
Q45.4062 37.75 41.375 43.1094
Q37.3594 48.4844 30.0781 48.4844
Q22.8594 48.4844 18.8281 43.1094
Q14.7969 37.75 14.7969 27.9844
Q14.7969 18.2656 18.8281 12.8906
Q22.8594 7.51562 30.0781 7.51562
Q37.3594 7.51562 41.375 12.8906
Q45.4062 18.2656 45.4062 27.9844
M54.3906 6.78125
Q54.3906 -7.17188 48.1875 -13.9844
Q42 -20.7969 29.2031 -20.7969
Q24.4688 -20.7969 20.2656 -20.0938
Q16.0625 -19.3906 12.1094 -17.9219
L12.1094 -9.1875
Q16.0625 -11.3281 19.9219 -12.3438
Q23.7812 -13.375 27.7812 -13.375
Q36.625 -13.375 41.0156 -8.76562
Q45.4062 -4.15625 45.4062 5.17188
L45.4062 9.625
Q42.625 4.78125 38.2812 2.39062
Q33.9375 0 27.875 0
Q17.8281 0 11.6719 7.65625
Q5.51562 15.3281 5.51562 27.9844
Q5.51562 40.6719 11.6719 48.3281
Q17.8281 56 27.875 56
Q33.9375 56 38.2812 53.6094
Q42.625 51.2188 45.4062 46.3906
L45.4062 54.6875
L54.3906 54.6875
z
" id="BitstreamVeraSans-Roman-67"/>
      <path d="
M18.1094 8.20312
L18.1094 -20.7969
L9.07812 -20.7969
L9.07812 54.6875
L18.1094 54.6875
L18.1094 46.3906
Q20.9531 51.2656 25.2656 53.625
Q29.5938 56 35.5938 56
Q45.5625 56 51.7812 48.0938
Q58.0156 40.1875 58.0156 27.2969
Q58.0156 14.4062 51.7812 6.48438
Q45.5625 -1.42188 35.5938 -1.42188
Q29.5938 -1.42188 25.2656 0.953125
Q20.9531 3.32812 18.1094 8.20312
M48.6875 27.2969
Q48.6875 37.2031 44.6094 42.8438
Q40.5312 48.4844 33.4062 48.4844
Q26.2656 48.4844 22.1875 42.8438
Q18.1094 37.2031 18.1094 27.2969
Q18.1094 17.3906 22.1875 11.75
Q26.2656 6.10938 33.4062 6.10938
Q40.5312 6.10938 44.6094 11.75
Q48.6875 17.3906 48.6875 27.2969" id="BitstreamVeraSans-Roman-70"/>
      <path d="
M48.6875 27.2969
Q48.6875 37.2031 44.6094 42.8438
Q40.5312 48.4844 33.4062 48.4844
Q26.2656 48.4844 22.1875 42.8438
Q18.1094 37.2031 18.1094 27.2969
Q18.1094 17.3906 22.1875 11.75
Q26.2656 6.10938 33.4062 6.10938
Q40.5312 6.10938 44.6094 11.75
Q48.6875 17.3906 48.6875 27.2969
M18.1094 46.3906
Q20.9531 51.2656 25.2656 53.625
Q29.5938 56 35.5938 56
Q45.5625 56 51.7812 48.0938
Q58.0156 40.1875 58.0156 27.2969
Q58.0156 14.4062 51.7812 6.48438
Q45.5625 -1.42188 35.5938 -1.42188
Q29.5938 -1.42188 25.2656 0.953125
Q20.9531 3.32812 18.1094 8.20312
L18.1094 0
L9.07812 0
L9.07812 75.9844
L18.1094 75.9844
z
" id="BitstreamVeraSans-Roman-62"/>
     </defs>
     <g transform="translate(208.3753125 419.638125)scale(0.12 -0.12)">
      <use xlink:href="#BitstreamVeraSans-Roman-6e"/>
      <use x="63.37890625" xlink:href="#BitstreamVeraSans-Roman-75"/>
      <use x="126.7578125" xlink:href="#BitstreamVeraSans-Roman-6d"/>
      <use x="224.169921875" xlink:href="#BitstreamVeraSans-Roman-62"/>
      <use x="287.646484375" xlink:href="#BitstreamVeraSans-Roman-65"/>
      <use x="349.169921875" xlink:href="#BitstreamVeraSans-Roman-72"/>
      <use x="390.283203125" xlink:href="#BitstreamVeraSans-Roman-20"/>
      <use x="422.0703125" xlink:href="#BitstreamVeraSans-Roman-6f"/>
      <use x="483.251953125" xlink:href="#BitstreamVeraSans-Roman-66"/>
      <use x="518.45703125" xlink:href="#BitstreamVeraSans-Roman-20"/>
      <use x="550.244140625" xlink:href="#BitstreamVeraSans-Roman-74"/>
      <use x="589.453125" xlink:href="#BitstreamVeraSans-Roman-72"/>
      <use x="630.56640625" xlink:href="#BitstreamVeraSans-Roman-61"/>
      <use x="691.845703125" xlink:href="#BitstreamVeraSans-Roman-69"/>
      <use x="719.62890625" xlink:href="#BitstreamVeraSans-Roman-6e"/>
      <use x="783.0078125" xlink:href="#BitstreamVeraSans-Roman-69"/>
      <use x="810.791015625" xlink:href="#BitstreamVeraSans-Roman-6e"/>
      <use x="874.169921875" xlink:href="#BitstreamVeraSans-Roman-67"/>
      <use x="937.646484375" xlink:href="#BitstreamVeraSans-Roman-20"/>
      <use x="969.43359375" xlink:href="#BitstreamVeraSans-Roman-65"/>
      <use x="1029.20703125" xlink:href="#BitstreamVeraSans-Roman-78"/>
      <use x="1088.38671875" xlink:href="#BitstreamVeraSans-Roman-61"/>
      <use x="1149.66601562" xlink:href="#BitstreamVeraSans-Roman-6d"/>
      <use x="1247.078125" xlink:href="#BitstreamVeraSans-Roman-70"/>
      <use x="1310.5546875" xlink:href="#BitstreamVeraSans-Roman-6c"/>
      <use x="1338.33789062" xlink:href="#BitstreamVeraSans-Roman-65"/>
      <use x="1399.86132812" xlink:href="#BitstreamVeraSans-Roman-73"/>
     </g>
    </g>
   </g>
   <g id="matplotlib.axis_2">
    <g id="ytick_1">
     <g id="line2d_23">
      <path clip-path="url(#p7ff5b81e1d)" d="
M72 381.734
L518.4 381.734" style="fill:none;stroke:#000000;stroke-dasharray:1.000000,3.000000;stroke-dashoffset:0.0;stroke-width:0.5;"/>
     </g>
     <g id="line2d_24">
      <defs>
       <path d="
M0 0
L4 0" id="m728421d6d4" style="stroke:#000000;stroke-width:0.5;"/>
      </defs>
      <g>
       <use style="stroke:#000000;stroke-width:0.5;" x="72.0" xlink:href="#m728421d6d4" y="381.7344"/>
      </g>
     </g>
     <g id="line2d_25">
      <defs>
       <path d="
M0 0
L-4 0" id="mcb0005524f" style="stroke:#000000;stroke-width:0.5;"/>
      </defs>
      <g>
       <use style="stroke:#000000;stroke-width:0.5;" x="518.4" xlink:href="#mcb0005524f" y="381.7344"/>
      </g>
     </g>
     <g id="text_3">
      <!-- 0.920 -->
      <defs>
       <path d="
M19.1875 8.29688
L53.6094 8.29688
L53.6094 0
L7.32812 0
L7.32812 8.29688
Q12.9375 14.1094 22.625 23.8906
Q32.3281 33.6875 34.8125 36.5312
Q39.5469 41.8438 41.4219 45.5312
Q43.3125 49.2188 43.3125 52.7812
Q43.3125 58.5938 39.2344 62.25
Q35.1562 65.9219 28.6094 65.9219
Q23.9688 65.9219 18.8125 64.3125
Q13.6719 62.7031 7.8125 59.4219
L7.8125 69.3906
Q13.7656 71.7812 18.9375 73
Q24.125 74.2188 28.4219 74.2188
Q39.75 74.2188 46.4844 68.5469
Q53.2188 62.8906 53.2188 53.4219
Q53.2188 48.9219 51.5312 44.8906
Q49.8594 40.875 45.4062 35.4062
Q44.1875 33.9844 37.6406 27.2188
Q31.1094 20.4531 19.1875 8.29688" id="BitstreamVeraSans-Roman-32"/>
       <path d="
M10.9844 1.51562
L10.9844 10.5
Q14.7031 8.73438 18.5 7.8125
Q22.3125 6.89062 25.9844 6.89062
Q35.75 6.89062 40.8906 13.4531
Q46.0469 20.0156 46.7812 33.4062
Q43.9531 29.2031 39.5938 26.9531
Q35.25 24.7031 29.9844 24.7031
Q19.0469 24.7031 12.6719 31.3125
Q6.29688 37.9375 6.29688 49.4219
Q6.29688 60.6406 12.9375 67.4219
Q19.5781 74.2188 30.6094 74.2188
Q43.2656 74.2188 49.9219 64.5156
Q56.5938 54.8281 56.5938 36.375
Q56.5938 19.1406 48.4062 8.85938
Q40.2344 -1.42188 26.4219 -1.42188
Q22.7031 -1.42188 18.8906 -0.6875
Q15.0938 0.046875 10.9844 1.51562
M30.6094 32.4219
Q37.25 32.4219 41.125 36.9531
Q45.0156 41.5 45.0156 49.4219
Q45.0156 57.2812 41.125 61.8438
Q37.25 66.4062 30.6094 66.4062
Q23.9688 66.4062 20.0938 61.8438
Q16.2188 57.2812 16.2188 49.4219
Q16.2188 41.5 20.0938 36.9531
Q23.9688 32.4219 30.6094 32.4219" id="BitstreamVeraSans-Roman-39"/>
       <path d="
M10.6875 12.4062
L21 12.4062
L21 0
L10.6875 0
z
" id="BitstreamVeraSans-Roman-2e"/>
      </defs>
      <g transform="translate(35.234375 385.04565)scale(0.12 -0.12)">
       <use xlink:href="#BitstreamVeraSans-Roman-30"/>
       <use x="63.623046875" xlink:href="#BitstreamVeraSans-Roman-2e"/>
       <use x="95.41015625" xlink:href="#BitstreamVeraSans-Roman-39"/>
       <use x="159.033203125" xlink:href="#BitstreamVeraSans-Roman-32"/>
       <use x="222.65625" xlink:href="#BitstreamVeraSans-Roman-30"/>
      </g>
     </g>
    </g>
    <g id="ytick_2">
     <g id="line2d_26">
      <path clip-path="url(#p7ff5b81e1d)" d="
M72 322.752
L518.4 322.752" style="fill:none;stroke:#000000;stroke-dasharray:1.000000,3.000000;stroke-dashoffset:0.0;stroke-width:0.5;"/>
     </g>
     <g id="line2d_27">
      <g>
       <use style="stroke:#000000;stroke-width:0.5;" x="72.0" xlink:href="#m728421d6d4" y="322.752"/>
      </g>
     </g>
     <g id="line2d_28">
      <g>
       <use style="stroke:#000000;stroke-width:0.5;" x="518.4" xlink:href="#mcb0005524f" y="322.752"/>
      </g>
     </g>
     <g id="text_4">
      <!-- 0.925 -->
      <g transform="translate(35.485625 326.06325)scale(0.12 -0.12)">
       <use xlink:href="#BitstreamVeraSans-Roman-30"/>
       <use x="63.623046875" xlink:href="#BitstreamVeraSans-Roman-2e"/>
       <use x="95.41015625" xlink:href="#BitstreamVeraSans-Roman-39"/>
       <use x="159.033203125" xlink:href="#BitstreamVeraSans-Roman-32"/>
       <use x="222.65625" xlink:href="#BitstreamVeraSans-Roman-35"/>
      </g>
     </g>
    </g>
    <g id="ytick_3">
     <g id="line2d_29">
      <path clip-path="url(#p7ff5b81e1d)" d="
M72 263.77
L518.4 263.77" style="fill:none;stroke:#000000;stroke-dasharray:1.000000,3.000000;stroke-dashoffset:0.0;stroke-width:0.5;"/>
     </g>
     <g id="line2d_30">
      <g>
       <use style="stroke:#000000;stroke-width:0.5;" x="72.0" xlink:href="#m728421d6d4" y="263.7696"/>
      </g>
     </g>
     <g id="line2d_31">
      <g>
       <use style="stroke:#000000;stroke-width:0.5;" x="518.4" xlink:href="#mcb0005524f" y="263.7696"/>
      </g>
     </g>
     <g id="text_5">
      <!-- 0.930 -->
      <defs>
       <path d="
M40.5781 39.3125
Q47.6562 37.7969 51.625 33
Q55.6094 28.2188 55.6094 21.1875
Q55.6094 10.4062 48.1875 4.48438
Q40.7656 -1.42188 27.0938 -1.42188
Q22.5156 -1.42188 17.6562 -0.515625
Q12.7969 0.390625 7.625 2.20312
L7.625 11.7188
Q11.7188 9.32812 16.5938 8.10938
Q21.4844 6.89062 26.8125 6.89062
Q36.0781 6.89062 40.9375 10.5469
Q45.7969 14.2031 45.7969 21.1875
Q45.7969 27.6406 41.2812 31.2656
Q36.7656 34.9062 28.7188 34.9062
L20.2188 34.9062
L20.2188 43.0156
L29.1094 43.0156
Q36.375 43.0156 40.2344 45.9219
Q44.0938 48.8281 44.0938 54.2969
Q44.0938 59.9062 40.1094 62.9062
Q36.1406 65.9219 28.7188 65.9219
Q24.6562 65.9219 20.0156 65.0312
Q15.375 64.1562 9.8125 62.3125
L9.8125 71.0938
Q15.4375 72.6562 20.3438 73.4375
Q25.25 74.2188 29.5938 74.2188
Q40.8281 74.2188 47.3594 69.1094
Q53.9062 64.0156 53.9062 55.3281
Q53.9062 49.2656 50.4375 45.0938
Q46.9688 40.9219 40.5781 39.3125" id="BitstreamVeraSans-Roman-33"/>
      </defs>
      <g transform="translate(35.234375 267.08085)scale(0.12 -0.12)">
       <use xlink:href="#BitstreamVeraSans-Roman-30"/>
       <use x="63.623046875" xlink:href="#BitstreamVeraSans-Roman-2e"/>
       <use x="95.41015625" xlink:href="#BitstreamVeraSans-Roman-39"/>
       <use x="159.033203125" xlink:href="#BitstreamVeraSans-Roman-33"/>
       <use x="222.65625" xlink:href="#BitstreamVeraSans-Roman-30"/>
      </g>
     </g>
    </g>
    <g id="ytick_4">
     <g id="line2d_32">
      <path clip-path="url(#p7ff5b81e1d)" d="
M72 204.787
L518.4 204.787" style="fill:none;stroke:#000000;stroke-dasharray:1.000000,3.000000;stroke-dashoffset:0.0;stroke-width:0.5;"/>
     </g>
     <g id="line2d_33">
      <g>
       <use style="stroke:#000000;stroke-width:0.5;" x="72.0" xlink:href="#m728421d6d4" y="204.7872"/>
      </g>
     </g>
     <g id="line2d_34">
      <g>
       <use style="stroke:#000000;stroke-width:0.5;" x="518.4" xlink:href="#mcb0005524f" y="204.7872"/>
      </g>
     </g>
     <g id="text_6">
      <!-- 0.935 -->
      <g transform="translate(35.485625 208.09845)scale(0.12 -0.12)">
       <use xlink:href="#BitstreamVeraSans-Roman-30"/>
       <use x="63.623046875" xlink:href="#BitstreamVeraSans-Roman-2e"/>
       <use x="95.41015625" xlink:href="#BitstreamVeraSans-Roman-39"/>
       <use x="159.033203125" xlink:href="#BitstreamVeraSans-Roman-33"/>
       <use x="222.65625" xlink:href="#BitstreamVeraSans-Roman-35"/>
      </g>
     </g>
    </g>
    <g id="ytick_5">
     <g id="line2d_35">
      <path clip-path="url(#p7ff5b81e1d)" d="
M72 145.805
L518.4 145.805" style="fill:none;stroke:#000000;stroke-dasharray:1.000000,3.000000;stroke-dashoffset:0.0;stroke-width:0.5;"/>
     </g>
     <g id="line2d_36">
      <g>
       <use style="stroke:#000000;stroke-width:0.5;" x="72.0" xlink:href="#m728421d6d4" y="145.8048"/>
      </g>
     </g>
     <g id="line2d_37">
      <g>
       <use style="stroke:#000000;stroke-width:0.5;" x="518.4" xlink:href="#mcb0005524f" y="145.8048"/>
      </g>
     </g>
     <g id="text_7">
      <!-- 0.940 -->
      <defs>
       <path d="
M37.7969 64.3125
L12.8906 25.3906
L37.7969 25.3906
z

M35.2031 72.9062
L47.6094 72.9062
L47.6094 25.3906
L58.0156 25.3906
L58.0156 17.1875
L47.6094 17.1875
L47.6094 0
L37.7969 0
L37.7969 17.1875
L4.89062 17.1875
L4.89062 26.7031
z
" id="BitstreamVeraSans-Roman-34"/>
      </defs>
      <g transform="translate(35.234375 149.11605)scale(0.12 -0.12)">
       <use xlink:href="#BitstreamVeraSans-Roman-30"/>
       <use x="63.623046875" xlink:href="#BitstreamVeraSans-Roman-2e"/>
       <use x="95.41015625" xlink:href="#BitstreamVeraSans-Roman-39"/>
       <use x="159.033203125" xlink:href="#BitstreamVeraSans-Roman-34"/>
       <use x="222.65625" xlink:href="#BitstreamVeraSans-Roman-30"/>
      </g>
     </g>
    </g>
    <g id="ytick_6">
     <g id="line2d_38">
      <path clip-path="url(#p7ff5b81e1d)" d="
M72 86.8224
L518.4 86.8224" style="fill:none;stroke:#000000;stroke-dasharray:1.000000,3.000000;stroke-dashoffset:0.0;stroke-width:0.5;"/>
     </g>
     <g id="line2d_39">
      <g>
       <use style="stroke:#000000;stroke-width:0.5;" x="72.0" xlink:href="#m728421d6d4" y="86.8224"/>
      </g>
     </g>
     <g id="line2d_40">
      <g>
       <use style="stroke:#000000;stroke-width:0.5;" x="518.4" xlink:href="#mcb0005524f" y="86.8224"/>
      </g>
     </g>
     <g id="text_8">
      <!-- 0.945 -->
      <g transform="translate(35.485625 90.13365)scale(0.12 -0.12)">
       <use xlink:href="#BitstreamVeraSans-Roman-30"/>
       <use x="63.623046875" xlink:href="#BitstreamVeraSans-Roman-2e"/>
       <use x="95.41015625" xlink:href="#BitstreamVeraSans-Roman-39"/>
       <use x="159.033203125" xlink:href="#BitstreamVeraSans-Roman-34"/>
       <use x="222.65625" xlink:href="#BitstreamVeraSans-Roman-35"/>
      </g>
     </g>
    </g>
    <g id="text_9">
     <!-- accuracy -->
     <defs>
      <path d="
M48.7812 52.5938
L48.7812 44.1875
Q44.9688 46.2969 41.1406 47.3438
Q37.3125 48.3906 33.4062 48.3906
Q24.6562 48.3906 19.8125 42.8438
Q14.9844 37.3125 14.9844 27.2969
Q14.9844 17.2812 19.8125 11.7344
Q24.6562 6.20312 33.4062 6.20312
Q37.3125 6.20312 41.1406 7.25
Q44.9688 8.29688 48.7812 10.4062
L48.7812 2.09375
Q45.0156 0.34375 40.9844 -0.53125
Q36.9688 -1.42188 32.4219 -1.42188
Q20.0625 -1.42188 12.7812 6.34375
Q5.51562 14.1094 5.51562 27.2969
Q5.51562 40.6719 12.8594 48.3281
Q20.2188 56 33.0156 56
Q37.1562 56 41.1094 55.1406
Q45.0625 54.2969 48.7812 52.5938" id="BitstreamVeraSans-Roman-63"/>
      <path d="
M32.1719 -5.07812
Q28.375 -14.8438 24.75 -17.8125
Q21.1406 -20.7969 15.0938 -20.7969
L7.90625 -20.7969
L7.90625 -13.2812
L13.1875 -13.2812
Q16.8906 -13.2812 18.9375 -11.5156
Q21 -9.76562 23.4844 -3.21875
L25.0938 0.875
L2.98438 54.6875
L12.5 54.6875
L29.5938 11.9219
L46.6875 54.6875
L56.2031 54.6875
z
" id="BitstreamVeraSans-Roman-79"/>
     </defs>
     <g transform="translate(27.73875 242.5321875)rotate(-90.0)scale(0.12 -0.12)">
      <use xlink:href="#BitstreamVeraSans-Roman-61"/>
      <use x="61.279296875" xlink:href="#BitstreamVeraSans-Roman-63"/>
      <use x="116.259765625" xlink:href="#BitstreamVeraSans-Roman-63"/>
      <use x="171.240234375" xlink:href="#BitstreamVeraSans-Roman-75"/>
      <use x="234.619140625" xlink:href="#BitstreamVeraSans-Roman-72"/>
      <use x="275.732421875" xlink:href="#BitstreamVeraSans-Roman-61"/>
      <use x="337.01171875" xlink:href="#BitstreamVeraSans-Roman-63"/>
      <use x="391.9921875" xlink:href="#BitstreamVeraSans-Roman-79"/>
     </g>
    </g>
   </g>
   <g id="patch_3">
    <path d="
M72 43.2
L518.4 43.2" style="fill:none;stroke:#000000;"/>
   </g>
   <g id="patch_4">
    <path d="
M518.4 388.8
L518.4 43.2" style="fill:none;stroke:#000000;"/>
   </g>
   <g id="patch_5">
    <path d="
M72 388.8
L518.4 388.8" style="fill:none;stroke:#000000;"/>
   </g>
   <g id="patch_6">
    <path d="
M72 388.8
L72 43.2" style="fill:none;stroke:#000000;"/>
   </g>
   <g id="legend_1">
    <g id="patch_7">
     <path d="
M308.921 381.6
L511.2 381.6
L511.2 312.669
L308.921 312.669
L308.921 381.6
z
" style="fill:#ffffff;stroke:#000000;"/>
    </g>
    <g id="LineCollection_4">
     <defs>
      <path d="
M319.001 -100.469
L319.001 -114.869" id="C3_0_87f5ebc4b2"/>
      <path d="
M339.161 -100.469
L339.161 -114.869" id="C3_1_83ad840859"/>
     </defs>
     <use style="fill:none;stroke:#0000ff;" x="0.0" xlink:href="#C3_0_87f5ebc4b2" y="432.0"/>
     <use style="fill:none;stroke:#0000ff;" x="0.0" xlink:href="#C3_1_83ad840859" y="432.0"/>
    </g>
    <g id="line2d_41">
     <g>
      <use style="fill:#0000ff;stroke:#0000ff;stroke-width:0.5;" x="319.0005" xlink:href="#mdde457ef1d" y="331.53075"/>
      <use style="fill:#0000ff;stroke:#0000ff;stroke-width:0.5;" x="339.1605" xlink:href="#mdde457ef1d" y="331.53075"/>
     </g>
    </g>
    <g id="line2d_42">
     <g>
      <use style="fill:#0000ff;stroke:#0000ff;stroke-width:0.5;" x="319.0005" xlink:href="#mdde457ef1d" y="317.13075"/>
      <use style="fill:#0000ff;stroke:#0000ff;stroke-width:0.5;" x="339.1605" xlink:href="#mdde457ef1d" y="317.13075"/>
     </g>
    </g>
    <g id="line2d_43">
     <path d="
M319.001 324.331
L339.161 324.331" style="fill:none;stroke:#0000ff;stroke-linecap:square;"/>
    </g>
    <g id="line2d_44"/>
    <g id="text_10">
     <!-- ffeat_ert_2d -->
     <defs>
      <path d="
M45.4062 46.3906
L45.4062 75.9844
L54.3906 75.9844
L54.3906 0
L45.4062 0
L45.4062 8.20312
Q42.5781 3.32812 38.25 0.953125
Q33.9375 -1.42188 27.875 -1.42188
Q17.9688 -1.42188 11.7344 6.48438
Q5.51562 14.4062 5.51562 27.2969
Q5.51562 40.1875 11.7344 48.0938
Q17.9688 56 27.875 56
Q33.9375 56 38.25 53.625
Q42.5781 51.2656 45.4062 46.3906
M14.7969 27.2969
Q14.7969 17.3906 18.875 11.75
Q22.9531 6.10938 30.0781 6.10938
Q37.2031 6.10938 41.2969 11.75
Q45.4062 17.3906 45.4062 27.2969
Q45.4062 37.2031 41.2969 42.8438
Q37.2031 48.4844 30.0781 48.4844
Q22.9531 48.4844 18.875 42.8438
Q14.7969 37.2031 14.7969 27.2969" id="BitstreamVeraSans-Roman-64"/>
      <path d="
M50.9844 -16.6094
L50.9844 -23.5781
L-0.984375 -23.5781
L-0.984375 -16.6094
z
" id="BitstreamVeraSans-Roman-5f"/>
     </defs>
     <g transform="translate(355.0005 329.37075)scale(0.144 -0.144)">
      <use xlink:href="#BitstreamVeraSans-Roman-66"/>
      <use x="35.205078125" xlink:href="#BitstreamVeraSans-Roman-66"/>
      <use x="70.41015625" xlink:href="#BitstreamVeraSans-Roman-65"/>
      <use x="131.93359375" xlink:href="#BitstreamVeraSans-Roman-61"/>
      <use x="193.212890625" xlink:href="#BitstreamVeraSans-Roman-74"/>
      <use x="232.421875" xlink:href="#BitstreamVeraSans-Roman-5f"/>
      <use x="282.421875" xlink:href="#BitstreamVeraSans-Roman-65"/>
      <use x="343.9453125" xlink:href="#BitstreamVeraSans-Roman-72"/>
      <use x="385.05859375" xlink:href="#BitstreamVeraSans-Roman-74"/>
      <use x="424.267578125" xlink:href="#BitstreamVeraSans-Roman-5f"/>
      <use x="474.267578125" xlink:href="#BitstreamVeraSans-Roman-32"/>
      <use x="537.890625" xlink:href="#BitstreamVeraSans-Roman-64"/>
     </g>
    </g>
    <g id="LineCollection_5">
     <defs>
      <path d="
M319.001 -78.9322
L319.001 -93.3322" id="C4_0_77d232574a"/>
      <path d="
M339.161 -78.9322
L339.161 -93.3322" id="C4_1_c30aba2485"/>
     </defs>
     <use style="fill:none;stroke:#008000;" x="0.0" xlink:href="#C4_0_77d232574a" y="432.0"/>
     <use style="fill:none;stroke:#008000;" x="0.0" xlink:href="#C4_1_c30aba2485" y="432.0"/>
    </g>
    <g id="line2d_45">
     <g>
      <use style="fill:#008000;stroke:#008000;stroke-width:0.5;" x="319.0005" xlink:href="#m1ef3793437" y="353.06775"/>
      <use style="fill:#008000;stroke:#008000;stroke-width:0.5;" x="339.1605" xlink:href="#m1ef3793437" y="353.06775"/>
     </g>
    </g>
    <g id="line2d_46">
     <g>
      <use style="fill:#008000;stroke:#008000;stroke-width:0.5;" x="319.0005" xlink:href="#m1ef3793437" y="338.66775"/>
      <use style="fill:#008000;stroke:#008000;stroke-width:0.5;" x="339.1605" xlink:href="#m1ef3793437" y="338.66775"/>
     </g>
    </g>
    <g id="line2d_47">
     <path d="
M319.001 345.868
L339.161 345.868" style="fill:none;stroke:#008000;stroke-linecap:square;"/>
    </g>
    <g id="line2d_48"/>
    <g id="text_11">
     <!-- ffeat_ert_aniso2 -->
     <g transform="translate(355.0005 350.90775)scale(0.144 -0.144)">
      <use xlink:href="#BitstreamVeraSans-Roman-66"/>
      <use x="35.205078125" xlink:href="#BitstreamVeraSans-Roman-66"/>
      <use x="70.41015625" xlink:href="#BitstreamVeraSans-Roman-65"/>
      <use x="131.93359375" xlink:href="#BitstreamVeraSans-Roman-61"/>
      <use x="193.212890625" xlink:href="#BitstreamVeraSans-Roman-74"/>
      <use x="232.421875" xlink:href="#BitstreamVeraSans-Roman-5f"/>
      <use x="282.421875" xlink:href="#BitstreamVeraSans-Roman-65"/>
      <use x="343.9453125" xlink:href="#BitstreamVeraSans-Roman-72"/>
      <use x="385.05859375" xlink:href="#BitstreamVeraSans-Roman-74"/>
      <use x="424.267578125" xlink:href="#BitstreamVeraSans-Roman-5f"/>
      <use x="474.267578125" xlink:href="#BitstreamVeraSans-Roman-61"/>
      <use x="535.546875" xlink:href="#BitstreamVeraSans-Roman-6e"/>
      <use x="598.92578125" xlink:href="#BitstreamVeraSans-Roman-69"/>
      <use x="626.708984375" xlink:href="#BitstreamVeraSans-Roman-73"/>
      <use x="678.80859375" xlink:href="#BitstreamVeraSans-Roman-6f"/>
      <use x="739.990234375" xlink:href="#BitstreamVeraSans-Roman-32"/>
     </g>
    </g>
    <g id="LineCollection_6">
     <defs>
      <path d="
M319.001 -57.3952
L319.001 -71.7952" id="C5_0_df1b79cb7d"/>
      <path d="
M339.161 -57.3952
L339.161 -71.7952" id="C5_1_719ef8511e"/>
     </defs>
     <use style="fill:none;stroke:#ff0000;" x="0.0" xlink:href="#C5_0_df1b79cb7d" y="432.0"/>
     <use style="fill:none;stroke:#ff0000;" x="0.0" xlink:href="#C5_1_719ef8511e" y="432.0"/>
    </g>
    <g id="line2d_49">
     <g>
      <use style="fill:#ff0000;stroke:#ff0000;stroke-width:0.5;" x="319.0005" xlink:href="#m12d35e2592" y="374.60475"/>
      <use style="fill:#ff0000;stroke:#ff0000;stroke-width:0.5;" x="339.1605" xlink:href="#m12d35e2592" y="374.60475"/>
     </g>
    </g>
    <g id="line2d_50">
     <g>
      <use style="fill:#ff0000;stroke:#ff0000;stroke-width:0.5;" x="319.0005" xlink:href="#m12d35e2592" y="360.20475"/>
      <use style="fill:#ff0000;stroke:#ff0000;stroke-width:0.5;" x="339.1605" xlink:href="#m12d35e2592" y="360.20475"/>
     </g>
    </g>
    <g id="line2d_51">
     <path d="
M319.001 367.405
L339.161 367.405" style="fill:none;stroke:#ff0000;stroke-linecap:square;"/>
    </g>
    <g id="line2d_52"/>
    <g id="text_12">
     <!-- ffeat_ert_anisonative -->
     <defs>
      <path d="
M2.98438 54.6875
L12.5 54.6875
L29.5938 8.79688
L46.6875 54.6875
L56.2031 54.6875
L35.6875 0
L23.4844 0
z
" id="BitstreamVeraSans-Roman-76"/>
     </defs>
     <g transform="translate(355.0005 372.44475)scale(0.144 -0.144)">
      <use xlink:href="#BitstreamVeraSans-Roman-66"/>
      <use x="35.205078125" xlink:href="#BitstreamVeraSans-Roman-66"/>
      <use x="70.41015625" xlink:href="#BitstreamVeraSans-Roman-65"/>
      <use x="131.93359375" xlink:href="#BitstreamVeraSans-Roman-61"/>
      <use x="193.212890625" xlink:href="#BitstreamVeraSans-Roman-74"/>
      <use x="232.421875" xlink:href="#BitstreamVeraSans-Roman-5f"/>
      <use x="282.421875" xlink:href="#BitstreamVeraSans-Roman-65"/>
      <use x="343.9453125" xlink:href="#BitstreamVeraSans-Roman-72"/>
      <use x="385.05859375" xlink:href="#BitstreamVeraSans-Roman-74"/>
      <use x="424.267578125" xlink:href="#BitstreamVeraSans-Roman-5f"/>
      <use x="474.267578125" xlink:href="#BitstreamVeraSans-Roman-61"/>
      <use x="535.546875" xlink:href="#BitstreamVeraSans-Roman-6e"/>
      <use x="598.92578125" xlink:href="#BitstreamVeraSans-Roman-69"/>
      <use x="626.708984375" xlink:href="#BitstreamVeraSans-Roman-73"/>
      <use x="678.80859375" xlink:href="#BitstreamVeraSans-Roman-6f"/>
      <use x="739.990234375" xlink:href="#BitstreamVeraSans-Roman-6e"/>
      <use x="803.369140625" xlink:href="#BitstreamVeraSans-Roman-61"/>
      <use x="864.6484375" xlink:href="#BitstreamVeraSans-Roman-74"/>
      <use x="903.857421875" xlink:href="#BitstreamVeraSans-Roman-69"/>
      <use x="931.640625" xlink:href="#BitstreamVeraSans-Roman-76"/>
      <use x="990.8203125" xlink:href="#BitstreamVeraSans-Roman-65"/>
     </g>
    </g>
   </g>
  </g>
 </g>
 <defs>
  <clipPath id="p7ff5b81e1d">
   <rect height="345.6" width="446.4" x="72.0" y="43.2"/>
  </clipPath>
 </defs>
</svg>
